<mxfile host="Electron" agent="Mozilla/5.0 (Windows NT 10.0; Win64; x64) AppleWebKit/537.36 (KHTML, like Gecko) draw.io/24.7.17 Chrome/128.0.6613.36 Electron/32.0.1 Safari/537.36" version="24.7.17">
  <diagram name="Página-1" id="VxhO96F3rHkMfW6KeEh2">
    <mxGraphModel dx="1050" dy="1790" grid="1" gridSize="10" guides="1" tooltips="1" connect="1" arrows="1" fold="1" page="1" pageScale="1" pageWidth="827" pageHeight="1169" math="0" shadow="0">
      <root>
        <mxCell id="0" />
        <mxCell id="1" parent="0" />
        <mxCell id="bK-gNIifQhYfn9CY0I1n-8" style="edgeStyle=orthogonalEdgeStyle;rounded=0;orthogonalLoop=1;jettySize=auto;html=1;exitX=0;exitY=0.75;exitDx=0;exitDy=0;entryX=0.5;entryY=0;entryDx=0;entryDy=0;dashed=1;dashPattern=12 12;" edge="1" parent="1" source="bK-gNIifQhYfn9CY0I1n-1" target="bK-gNIifQhYfn9CY0I1n-2">
          <mxGeometry relative="1" as="geometry" />
        </mxCell>
        <mxCell id="bK-gNIifQhYfn9CY0I1n-1" value="" style="shape=actor;whiteSpace=wrap;html=1;" vertex="1" parent="1">
          <mxGeometry x="384" y="-90" width="60" height="80" as="geometry" />
        </mxCell>
        <mxCell id="bK-gNIifQhYfn9CY0I1n-5" style="edgeStyle=orthogonalEdgeStyle;rounded=0;orthogonalLoop=1;jettySize=auto;html=1;entryX=0;entryY=0.5;entryDx=0;entryDy=0;dashed=1;dashPattern=12 12;" edge="1" parent="1" source="bK-gNIifQhYfn9CY0I1n-2" target="bK-gNIifQhYfn9CY0I1n-4">
          <mxGeometry relative="1" as="geometry" />
        </mxCell>
        <mxCell id="bK-gNIifQhYfn9CY0I1n-2" value="&lt;b&gt;&lt;font style=&quot;font-size: 14px;&quot;&gt;Iniciar sesión o crear cuenta&lt;/font&gt;&lt;/b&gt;&lt;br&gt;&lt;b&gt;[&lt;font color=&quot;#6666ff&quot;&gt;sistema de login&lt;/font&gt;]&lt;/b&gt;&lt;div style=&quot;padding: 0px 5px; margin-top: 0px;&quot;&gt;Permite a los usuarios crear su cuenta personal o ingresar a su cuenta personal&lt;/div&gt;" style="html=1;whiteSpace=wrap;" vertex="1" parent="1">
          <mxGeometry x="40" y="160" width="170" height="120" as="geometry" />
        </mxCell>
        <mxCell id="bK-gNIifQhYfn9CY0I1n-7" style="edgeStyle=orthogonalEdgeStyle;rounded=0;orthogonalLoop=1;jettySize=auto;html=1;dashed=1;dashPattern=12 12;" edge="1" parent="1" source="bK-gNIifQhYfn9CY0I1n-4" target="bK-gNIifQhYfn9CY0I1n-1">
          <mxGeometry relative="1" as="geometry" />
        </mxCell>
        <mxCell id="bK-gNIifQhYfn9CY0I1n-4" value="&lt;b&gt;&lt;font style=&quot;font-size: 14px;&quot;&gt;Confirmación email&lt;/font&gt;&lt;/b&gt;&lt;br&gt;&lt;b&gt;[&lt;font color=&quot;#6666ff&quot;&gt;medida de seguridad&lt;/font&gt;]&lt;/b&gt;&lt;div style=&quot;padding: 5px;&quot;&gt;Envia un email de confirmación a los usuarios como medida de seguridad o para notificaiones&lt;/div&gt;" style="html=1;whiteSpace=wrap;fillColor=#31293B;" vertex="1" parent="1">
          <mxGeometry x="329" y="160" width="170" height="120" as="geometry" />
        </mxCell>
        <mxCell id="bK-gNIifQhYfn9CY0I1n-9" value="&lt;span style=&quot;font-size: 14px;&quot;&gt;&lt;b&gt;Interfaz de compra&lt;/b&gt;&lt;/span&gt;&lt;br&gt;&lt;b&gt;[&lt;font color=&quot;#6666ff&quot;&gt;Front-end&lt;/font&gt;]&lt;/b&gt;&lt;div style=&quot;padding: 0px 5px; margin-top: 0px;&quot;&gt;Hace una petición al servidor para cargar los productos existentes y los usuarios puedan comprar&lt;/div&gt;" style="html=1;whiteSpace=wrap;" vertex="1" parent="1">
          <mxGeometry x="40" y="360" width="170" height="120" as="geometry" />
        </mxCell>
        <mxCell id="bK-gNIifQhYfn9CY0I1n-13" style="edgeStyle=orthogonalEdgeStyle;rounded=0;orthogonalLoop=1;jettySize=auto;html=1;entryX=0;entryY=0.5;entryDx=0;entryDy=0;dashed=1;dashPattern=8 8;" edge="1" parent="1" source="bK-gNIifQhYfn9CY0I1n-10" target="bK-gNIifQhYfn9CY0I1n-11">
          <mxGeometry relative="1" as="geometry" />
        </mxCell>
        <mxCell id="bK-gNIifQhYfn9CY0I1n-10" value="&lt;span style=&quot;font-size: 14px;&quot;&gt;&lt;b&gt;Cambio tipo de cuenta&lt;/b&gt;&lt;/span&gt;&lt;br&gt;&lt;b&gt;[&lt;font color=&quot;#6666ff&quot;&gt;Sistema de cuenta&lt;/font&gt;]&lt;/b&gt;&lt;div style=&quot;padding: 0px 5px; margin-top: 0px;&quot;&gt;Envia una solicitud de postulación a ser contratado como cocinero, repartidor u otro.&lt;/div&gt;" style="html=1;whiteSpace=wrap;fillColor=#2E2E2E;" vertex="1" parent="1">
          <mxGeometry x="260" y="360" width="170" height="120" as="geometry" />
        </mxCell>
        <mxCell id="bK-gNIifQhYfn9CY0I1n-16" style="edgeStyle=orthogonalEdgeStyle;rounded=0;orthogonalLoop=1;jettySize=auto;html=1;exitX=0.5;exitY=0;exitDx=0;exitDy=0;entryX=1;entryY=0.75;entryDx=0;entryDy=0;dashed=1;dashPattern=8 8;" edge="1" parent="1" source="bK-gNIifQhYfn9CY0I1n-11" target="bK-gNIifQhYfn9CY0I1n-4">
          <mxGeometry relative="1" as="geometry" />
        </mxCell>
        <mxCell id="bK-gNIifQhYfn9CY0I1n-11" value="&lt;span style=&quot;font-size: 14px;&quot;&gt;&lt;b&gt;Estado de la postulación&lt;/b&gt;&lt;/span&gt;&lt;br&gt;&lt;b&gt;[&lt;font color=&quot;#6666ff&quot;&gt;Sistema de mensaje&lt;/font&gt;]&lt;/b&gt;&lt;div style=&quot;padding: 0px 5px;&quot;&gt;Posterior a la revisión de la petición del usuario, se procesará para ser o no aceptado, enviando un mensaje&lt;/div&gt;" style="html=1;whiteSpace=wrap;fillColor=#31293B;labelPadding=0;fixedWidth=1;" vertex="1" parent="1">
          <mxGeometry x="460" y="360" width="170" height="120" as="geometry" />
        </mxCell>
        <mxCell id="bK-gNIifQhYfn9CY0I1n-14" value="Envia resultado" style="text;html=1;align=center;verticalAlign=middle;whiteSpace=wrap;rounded=0;fillColor=default;strokeColor=default;dashed=1;dashPattern=1 1;" vertex="1" parent="1">
          <mxGeometry x="500" y="290" width="90" height="40" as="geometry" />
        </mxCell>
        <mxCell id="bK-gNIifQhYfn9CY0I1n-17" value="Envia email" style="text;html=1;align=center;verticalAlign=middle;whiteSpace=wrap;rounded=0;fillColor=default;strokeColor=default;dashed=1;dashPattern=1 1;" vertex="1" parent="1">
          <mxGeometry x="369" y="80" width="90" height="40" as="geometry" />
        </mxCell>
        <mxCell id="bK-gNIifQhYfn9CY0I1n-18" value="Redacta email" style="text;html=1;align=center;verticalAlign=middle;whiteSpace=wrap;rounded=0;fillColor=default;strokeColor=default;dashed=1;dashPattern=1 1;" vertex="1" parent="1">
          <mxGeometry x="220" y="200" width="90" height="40" as="geometry" />
        </mxCell>
        <mxCell id="bK-gNIifQhYfn9CY0I1n-19" value="Para comprar" style="text;html=1;align=center;verticalAlign=middle;whiteSpace=wrap;rounded=0;fillColor=default;strokeColor=default;dashed=1;dashPattern=1 1;" vertex="1" parent="1">
          <mxGeometry x="80" y="60" width="90" height="40" as="geometry" />
        </mxCell>
      </root>
    </mxGraphModel>
  </diagram>
</mxfile>
